<?xml version="1.0" encoding="UTF-8"?>
<svg version="1.1" xmlns="http://www.w3.org/2000/svg" width="843" height="917">
<path d="M0 0 C0 160.38 0 320.76 0 486 C21.01187772 474.3267346 39.88058699 461.85267915 57.31640625 445.49609375 C59.60284973 443.36940178 61.92987084 441.32927439 64.3125 439.3125 C68.28067889 435.85765842 71.63443624 432.03458049 75 428 C75.83144531 427.02160156 76.66289063 426.04320312 77.51953125 425.03515625 C81.62808565 420.17379219 85.54708376 415.35003574 89 410 C88.36650131 410.01187347 87.73300262 410.02374695 87.08030701 410.03598022 C79.39231089 410.11521431 71.81788687 409.6230187 64.16015625 408.9765625 C62.87564072 408.87032562 61.59112518 408.76408875 60.26768494 408.65463257 C57.57230158 408.43083274 54.87725344 408.20340611 52.18237305 407.97363281 C48.7344524 407.68019494 45.2856718 407.39863485 41.83652592 407.12001991 C38.52709808 406.85051556 35.21871042 406.56908759 31.91015625 406.2890625 C30.67475601 406.19001617 29.43935577 406.09096985 28.16651917 405.98892212 C27.02110153 405.88896942 25.8756839 405.78901672 24.69555664 405.68603516 C23.1864547 405.5594603 23.1864547 405.5594603 21.64686584 405.43032837 C19.05054177 405.0082171 17.25947296 404.31542375 15 403 C26.0075166 397.4377306 37.08940494 392.06021198 48.25 386.8125 C49.83710883 386.06460242 51.42418509 385.31663572 53.01123047 384.56860352 C63.48398602 379.63620537 73.97593939 374.74630656 84.48144531 369.8840332 C93.6722116 365.62706975 102.8382242 361.31891821 112 357 C126.97381735 349.94297775 141.97173752 342.94052503 157 336 C158.16031738 335.46375 159.32063477 334.9275 160.51611328 334.375 C163.90539426 332.80992062 167.29611139 331.24800633 170.6875 329.6875 C172.23074951 328.97533325 172.23074951 328.97533325 173.80517578 328.2487793 C174.73958496 327.81992432 175.67399414 327.39106934 176.63671875 326.94921875 C177.45873779 326.57112061 178.28075684 326.19302246 179.12768555 325.8034668 C181 325 181 325 182 325 C181.38397932 335.96729394 180.0877124 346.76830039 178.62329102 357.64770508 C178.37974695 359.48059154 178.1365522 361.31352445 177.89367676 363.14649963 C177.23872504 368.0800306 176.57826738 373.01280857 175.91624188 377.94539475 C175.50269842 381.02853612 175.09036427 384.11183677 174.67844963 387.19519615 C173.2411492 397.95372565 171.79932431 408.71163765 170.35327148 419.46899414 C169.00502111 429.49971116 167.66688762 439.53174358 166.33332878 449.56442338 C165.186499 458.18888049 164.03266956 466.81238211 162.87333053 475.43516654 C162.18153182 480.58146559 161.49262909 485.72811264 160.81079292 490.87574196 C160.17123382 495.70237947 159.52302059 500.52777406 158.86795807 505.35233116 C158.62853964 507.12691823 158.39228302 508.90193501 158.159338 510.67738342 C157.84225691 513.09037277 157.51406684 515.50158701 157.18287659 517.91267395 C157.09211068 518.62392782 157.00134478 519.33518168 156.90782839 520.06798869 C156.67435883 521.7232267 156.34674015 523.36473484 156 525 C155.34 525.33 154.68 525.66 154 526 C151.25730886 516.404728 148.51885061 506.80825922 145.78582001 497.21023083 C144.51669097 492.75373097 143.24609651 488.29765977 141.97216797 483.8425293 C140.74327585 479.54469554 139.51821373 475.24578721 138.29582214 470.94610023 C137.8283113 469.30423272 137.35941158 467.66276003 136.88911438 466.02168846 C136.231662 463.72666406 135.5791201 461.43029733 134.92773438 459.13354492 C134.73136887 458.4523761 134.53500336 457.77120728 134.33268738 457.06939697 C133.54343439 454.26979916 133 451.9266966 133 449 C129.971351 451.67736369 128.03906071 454.97101799 125.9375 458.375 C113.56274446 477.96306588 97.86577126 496.42276988 79.7109375 510.83984375 C77.98229941 512.21727439 76.27609773 513.62368778 74.6015625 515.06640625 C60.2456604 527.36176089 43.77785892 537.37714354 27 546 C26.14776855 546.43908691 25.29553711 546.87817383 24.41748047 547.33056641 C-60.15222818 590.40229336 -162.25670796 595.02236111 -252.00756836 565.89038086 C-302.33994845 548.82953955 -352.57893287 519.02241953 -385 476 C-385.47469727 475.38527832 -385.94939453 474.77055664 -386.43847656 474.13720703 C-398.13826993 458.93184396 -407.54899234 442.64474005 -414.8125 424.875 C-415.32840698 423.62227295 -415.32840698 423.62227295 -415.85473633 422.34423828 C-416.15661865 421.56806152 -416.45850098 420.79188477 -416.76953125 419.9921875 C-417.03354736 419.31526855 -417.29756348 418.63834961 -417.56958008 417.94091797 C-418.07869518 415.6451352 -417.72863666 414.21088651 -417 412 C-416.28714844 412.845625 -415.57429688 413.69125 -414.83984375 414.5625 C-413.87243322 415.7083649 -412.90498316 416.85419642 -411.9375 418 C-411.47150391 418.55300781 -411.00550781 419.10601563 -410.52539062 419.67578125 C-409.02219324 421.45507611 -407.51279598 423.22885889 -406 425 C-405.19212036 425.94685669 -405.19212036 425.94685669 -404.36791992 426.9128418 C-393.14090613 439.91906139 -380.90613383 451.89915877 -367 462 C-366.36835938 462.47066895 -365.73671875 462.94133789 -365.0859375 463.42626953 C-348.8249274 475.53833073 -331.21810467 485.17793065 -313 494 C-310.99917873 494.99835578 -308.99905476 495.99811174 -307 497 C-307.01797496 495.77831383 -307.01797496 495.77831383 -307.03631306 494.53194714 C-307.32382974 474.68362858 -307.53873411 454.83567048 -307.67355824 434.98570538 C-307.74049799 425.38611091 -307.83169838 415.78790921 -307.98071289 406.18920898 C-308.11058497 397.81954503 -308.19422498 389.45088987 -308.22315043 381.08024627 C-308.24005214 376.65035257 -308.27954937 372.2233438 -308.37449074 367.79437828 C-308.46328543 363.61799276 -308.48984962 359.44565529 -308.47039986 355.26841545 C-308.47395286 353.74249435 -308.4995075 352.21642661 -308.54967117 350.69132614 C-308.89870127 339.52450394 -308.89870127 339.52450394 -305.73992324 335.32460809 C-302.68338518 332.15857236 -299.26066021 329.59270236 -295.62804449 327.12697279 C-293.17935074 325.43192622 -290.91277167 323.52886814 -288.625 321.625 C-287.74070312 320.90570313 -286.85640625 320.18640625 -285.9453125 319.4453125 C-281.75350526 315.9651118 -277.65601793 312.37966766 -273.54956055 308.79956055 C-269.03784637 304.87510903 -264.44674445 301.06573217 -259.80078125 297.30078125 C-256.53670217 294.61941084 -253.3274928 291.87937137 -250.125 289.125 C-249.53541504 288.61791504 -248.94583008 288.11083008 -248.33837891 287.58837891 C-247.74847168 287.08097168 -247.15856445 286.57356445 -246.55078125 286.05078125 C-219.74976168 263 -219.74976168 263 -218 263 C-218 348.8 -218 434.6 -218 523 C-212.39 523.33 -206.78 523.66 -201 524 C-200.01 524.33 -199.02 524.66 -198 525 C-198.00417692 524.37112228 -198.00835385 523.74224455 -198.01265734 523.09430993 C-198.25889893 485.80910026 -198.4475932 448.524011 -198.56171862 411.23815448 C-198.57547614 406.75967974 -198.58971371 402.28120665 -198.60424805 397.80273438 C-198.60713346 396.91116366 -198.61001888 396.01959295 -198.61299173 395.10100494 C-198.66083641 380.67098393 -198.74755503 366.24144571 -198.84868076 351.81171097 C-198.95160432 337.00175029 -199.01265831 322.19204219 -199.03497344 307.38173854 C-199.05005574 298.2451067 -199.09765994 289.10983952 -199.18708114 279.97362785 C-199.24529815 273.70568291 -199.26278585 267.43844178 -199.24851515 261.1702462 C-199.241479 257.55499626 -199.25213734 253.94212754 -199.31126022 250.32730293 C-199.66580028 227.53070623 -199.66580028 227.53070623 -195.65174294 222.17464828 C-192.87716186 219.60100566 -190.29223708 217.83651226 -187 216 C-185.22702544 214.59093383 -183.47366554 213.15647357 -181.75 211.6875 C-180.84765625 210.95917969 -179.9453125 210.23085938 -179.015625 209.48046875 C-175.45329648 206.55031511 -171.97532039 203.53234033 -168.5 200.5 C-163.34164524 196.00234349 -158.11842163 191.61003945 -152.80078125 187.30078125 C-149.53670217 184.61941084 -146.3274928 181.87937137 -143.125 179.125 C-142.53541504 178.61791504 -141.94583008 178.11083008 -141.33837891 177.58837891 C-140.74847168 177.08097168 -140.15856445 176.57356445 -139.55078125 176.05078125 C-134.06380457 171.33159142 -128.54279704 166.65344822 -123 162 C-122.21520264 161.33895264 -122.21520264 161.33895264 -121.41455078 160.66455078 C-119.90557973 159.39633797 -118.39040672 158.13551571 -116.875 156.875 C-116.00617188 156.15054688 -115.13734375 155.42609375 -114.2421875 154.6796875 C-112 153 -112 153 -109 152 C-109 274.1 -109 396.2 -109 522 C-104.05 521.01 -99.1 520.02 -94 519 C-92.35 519 -90.7 519 -89 519 C-89.00683497 517.59385564 -89.00683497 517.59385564 -89.01380801 516.15930432 C-89.28279124 460.60322575 -89.48822972 405.04720749 -89.61278395 349.49060835 C-89.62779249 342.82031657 -89.6433104 336.1500261 -89.65917969 329.47973633 C-89.6607488 328.81596968 -89.6623179 328.15220303 -89.66393456 327.46832224 C-89.71505194 305.96170186 -89.80517297 284.45546034 -89.91556665 262.94906939 C-90.03203647 240.21761467 -90.10396546 217.48638314 -90.12906194 194.75463849 C-90.14553006 181.13915478 -90.1975459 167.52475883 -90.2949976 153.90960995 C-90.35841587 144.5739384 -90.37760458 135.23882939 -90.36201653 125.90295806 C-90.35432757 120.51566533 -90.36613327 115.13027346 -90.4304657 109.74331856 C-90.48897496 104.80789004 -90.49175188 99.8756352 -90.45078674 94.94005886 C-90.44572639 93.15784587 -90.46086836 91.37543286 -90.49859819 89.5936121 C-90.77690286 75.63525649 -90.77690286 75.63525649 -86.4209466 70.59037077 C-83.52429678 67.72305613 -80.32256274 65.35768732 -77 63 C-75.19954173 61.53154724 -73.40633352 60.05409457 -71.625 58.5625 C-70.7278125 57.83933594 -69.830625 57.11617187 -68.90625 56.37109375 C-65.60001272 53.67366629 -62.35872149 50.9085463 -59.125 48.125 C-57.93361795 47.10023228 -56.74221167 46.07549273 -55.55078125 45.05078125 C-54.66640381 44.29015381 -54.66640381 44.29015381 -53.76416016 43.51416016 C-47.11480163 37.80708548 -40.43124843 32.14439496 -33.625 26.625 C-29.17181488 23.00272989 -24.82689683 19.27089954 -20.5 15.5 C-15.92845219 11.52244596 -11.3453256 7.56393415 -6.6875 3.6875 C-5.82511719 2.96949219 -4.96273438 2.25148438 -4.07421875 1.51171875 C-2 0 -2 0 0 0 Z " fill="#DD282B" transform="translate(466,95)"/>
<path d="M0 0 C1.1226828 0.00182281 2.2453656 0.00364563 3.40206909 0.00552368 C20.09976678 0.05113647 36.4395153 0.52116737 52.9375 3.3125 C53.97342285 3.47878906 55.0093457 3.64507813 56.07666016 3.81640625 C106.06830915 11.99314121 154.53382769 30.99689985 195.9375 60.3125 C196.72253906 60.86695801 197.50757813 61.42141602 198.31640625 61.99267578 C209.38583651 69.86165479 219.87600231 78.19285775 229.9375 87.3125 C230.51757812 87.83618164 231.09765625 88.35986328 231.6953125 88.89941406 C241.28158638 97.57757119 250.54897482 106.45470156 258.9375 116.3125 C259.72511719 117.21097656 260.51273438 118.10945313 261.32421875 119.03515625 C312.11576548 177.37769398 342.39679328 254.90526935 343.9375 332.3125 C343.95796387 333.07481934 343.97842773 333.83713867 343.99951172 334.62255859 C345.44377485 393.78960257 331.61142299 452.05533981 303.9375 504.3125 C303.56689453 505.01648926 303.19628906 505.72047852 302.81445312 506.44580078 C290.79287399 529.12377973 275.9168388 550.07767272 258.9375 569.3125 C258.28168945 570.05588623 257.62587891 570.79927246 256.95019531 571.56518555 C245.23975846 584.71439922 232.9190872 597.56853697 218.9375 608.3125 C217.88472887 609.18484444 216.8354798 610.06145018 215.7890625 610.94140625 C156.62587768 660.28730209 78.2969387 686.85368706 1.5625 686.375 C0.1328141 686.36996589 -1.29687355 686.36540643 -2.7265625 686.36132812 C-6.17191245 686.35049465 -9.61719427 686.33333984 -13.0625 686.3125 C-9.67330234 684.05303489 -8.08217901 683.95592632 -4.078125 683.671875 C-2.23395996 683.52552612 -2.23395996 683.52552612 -0.35253906 683.3762207 C0.30452026 683.32599762 0.96157959 683.27577454 1.6385498 683.22402954 C42.85650555 679.97460089 83.4099253 668.98519625 119.93847656 649.38427734 C121.36593771 648.61894339 122.79813429 647.86241499 124.23339844 647.11181641 C142.39838386 637.6087372 159.11157964 626.33044456 174.9375 613.3125 C175.50726562 612.84569824 176.07703125 612.37889648 176.6640625 611.89794922 C183.41561102 606.34419504 189.87132595 600.61812829 195.9375 594.3125 C198.5168963 591.71602161 201.11366541 589.14076333 203.734375 586.5859375 C210.29075527 580.17515652 216.32231186 573.58031876 221.9375 566.3125 C222.39092773 565.73016602 222.84435547 565.14783203 223.31152344 564.54785156 C258.748848 518.88412472 281.23451348 465.65807108 288.9375 408.3125 C289.05464355 407.45688477 289.17178711 406.60126953 289.29248047 405.71972656 C299.8724725 324.4440077 275.29429839 240.3866396 225.9375 175.5625 C224.28457027 173.46546038 222.62375675 171.38208419 220.9375 169.3125 C220.50131348 168.77334961 220.06512695 168.23419922 219.61572266 167.67871094 C212.35194855 158.78502935 204.40313513 150.57299701 196.3125 142.4375 C195.59098251 141.70808197 195.59098251 141.70808197 194.85488892 140.96392822 C188.23192043 134.28491782 181.33112101 128.13156666 173.9375 122.3125 C173.2170752 121.73806152 172.49665039 121.16362305 171.75439453 120.57177734 C106.78142028 69.06323406 22.33778183 44.75859378 -60.09716797 53.95751953 C-121.72383497 61.33485971 -179.27127062 85.69320602 -227.0625 125.3125 C-228.08214844 126.14652344 -229.10179687 126.98054688 -230.15234375 127.83984375 C-244.02827941 139.34918397 -257.01355547 152.05217526 -268.0625 166.3125 C-269.49834768 168.02222233 -270.93591569 169.73050106 -272.375 171.4375 C-300.42532411 205.8673249 -319.74060466 246.53792494 -331.0625 289.3125 C-331.31225586 290.24835938 -331.56201172 291.18421875 -331.81933594 292.1484375 C-337.29184313 313.09728612 -339.83705792 334.72835481 -341.0625 356.3125 C-343.10263346 353.25229981 -343.31744396 352.63718544 -343.328125 349.19140625 C-343.33239502 348.35359619 -343.33666504 347.51578613 -343.34106445 346.65258789 C-343.33163818 345.73598389 -343.32221191 344.81937988 -343.3125 343.875 C-343.30500732 342.9048999 -343.29751465 341.9347998 -343.28979492 340.93530273 C-342.1533729 260.54138033 -314.44617476 181.01490436 -261.0625 120.3125 C-260.11117187 119.21228516 -260.11117187 119.21228516 -259.140625 118.08984375 C-257.46097948 116.15208756 -255.76474681 114.23041609 -254.0625 112.3125 C-253.38960938 111.54679687 -252.71671875 110.78109375 -252.0234375 109.9921875 C-243.91450049 100.85172493 -235.39339581 92.20787338 -226.0625 84.3125 C-225.16660156 83.52746094 -224.27070313 82.74242188 -223.34765625 81.93359375 C-161.68132296 28.2303304 -81.43569954 -0.27489924 0 0 Z " fill="#30448D" transform="translate(447.0625,15.6875)"/>
<path d="M0 0 C0 150.15 0 300.3 0 455 C-22.8951941 467.71955228 -44.78243697 478.69739405 -69.25 487.1875 C-70.30324966 487.55494324 -70.30324966 487.55494324 -71.3777771 487.92980957 C-73.37880777 488.62340059 -75.38358919 489.30447606 -77.390625 489.98046875 C-78.54594727 490.37129639 -79.70126953 490.76212402 -80.89160156 491.16479492 C-83.79777152 491.94566261 -86.02295167 492.0673987 -89 492 C-89.27466899 438.93667629 -89.48611699 385.87342442 -89.61278395 332.80952964 C-89.62779243 326.54481222 -89.64332429 320.28009619 -89.65917969 314.01538086 C-89.66232741 312.7681893 -89.66547514 311.52099774 -89.66871825 310.2360125 C-89.7209336 290.04179736 -89.81554787 269.84799216 -89.92583355 249.65402021 C-90.038054 228.93295529 -90.10470569 208.21210505 -90.12906194 187.4907487 C-90.14552736 174.70438963 -90.1975279 161.91918924 -90.2949976 149.13318685 C-90.35843251 140.36517667 -90.3776009 131.59776542 -90.36201653 122.82954242 C-90.35433 117.7702943 -90.36610324 112.71307047 -90.4304657 107.65418243 C-90.48901289 103.01845771 -90.49172971 98.38611093 -90.45078674 93.75022826 C-90.4457299 92.07702786 -90.46084195 90.40361383 -90.49859819 88.73083182 C-90.77688851 75.63554187 -90.77688851 75.63554187 -86.4209466 70.6527611 C-83.51259212 67.78601744 -80.31088366 65.3878976 -77 63 C-75.20075576 61.53005999 -73.4077569 60.05239305 -71.625 58.5625 C-70.7278125 57.83933594 -69.830625 57.11617187 -68.90625 56.37109375 C-65.60001272 53.67366629 -62.35872149 50.9085463 -59.125 48.125 C-57.93361795 47.10023228 -56.74221167 46.07549273 -55.55078125 45.05078125 C-54.96119629 44.54369629 -54.37161133 44.03661133 -53.76416016 43.51416016 C-47.11480163 37.80708548 -40.43124843 32.14439496 -33.625 26.625 C-29.17181488 23.00272989 -24.82689683 19.27089954 -20.5 15.5 C-15.92845219 11.52244596 -11.3453256 7.56393415 -6.6875 3.6875 C-5.82511719 2.96949219 -4.96273437 2.25148438 -4.07421875 1.51171875 C-2 0 -2 0 0 0 Z " fill="#D92629" transform="translate(466,95)"/>
<path d="M0 0 C0.66 0 1.32 0 2 0 C2 122.1 2 244.2 2 370 C-15.38386811 373.8630818 -32.69195066 374.30783496 -50.45214844 374.20581055 C-53.78848773 374.18728631 -57.12455153 374.18530363 -60.4609375 374.18554688 C-62.61458571 374.18063868 -64.76823207 374.17481344 -66.921875 374.16796875 C-67.90323425 374.16685593 -68.88459351 374.1657431 -69.89569092 374.16459656 C-70.82826721 374.15821671 -71.76084351 374.15183685 -72.72167969 374.14526367 C-73.52659851 374.14145187 -74.33151733 374.13764008 -75.16082764 374.13371277 C-77.69125922 374.01454036 -80.16172471 373.77777897 -82.67744827 373.49164295 C-83.48714168 373.400037 -84.29683508 373.30843105 -85.13106465 373.21404916 C-86.05618765 373.10809483 -86.05618765 373.10809483 -87 373 C-87.25186257 335.07956525 -87.44564882 297.15925664 -87.56171862 259.23815448 C-87.57547614 254.75967974 -87.58971371 250.28120665 -87.60424805 245.80273438 C-87.60713346 244.91116366 -87.61001888 244.01959295 -87.61299173 243.10100494 C-87.66083641 228.67098393 -87.74755503 214.24144571 -87.84868076 199.81171097 C-87.95160432 185.00175029 -88.01265831 170.19204219 -88.03497344 155.38173854 C-88.05005574 146.2451067 -88.09765994 137.10983952 -88.18708114 127.97362785 C-88.24529815 121.70568291 -88.26278585 115.43844178 -88.24851515 109.1702462 C-88.241479 105.55499626 -88.25213734 101.94212754 -88.31126022 98.32730293 C-88.66580028 75.53070623 -88.66580028 75.53070623 -84.65174294 70.17464828 C-81.87716186 67.60100566 -79.29223708 65.83651226 -76 64 C-74.22702544 62.59093383 -72.47366554 61.15647357 -70.75 59.6875 C-69.84765625 58.95917969 -68.9453125 58.23085938 -68.015625 57.48046875 C-64.45329648 54.55031511 -60.97532039 51.53234033 -57.5 48.5 C-52.34164524 44.00234349 -47.11842163 39.61003945 -41.80078125 35.30078125 C-38.53670217 32.61941084 -35.3274928 29.87937137 -32.125 27.125 C-31.53541504 26.61791504 -30.94583008 26.11083008 -30.33837891 25.58837891 C-29.74847168 25.08097168 -29.15856445 24.57356445 -28.55078125 24.05078125 C-20.13946277 16.81644966 -11.65908375 9.67399576 -3.046875 2.6796875 C-1.12984433 1.16253021 -1.12984433 1.16253021 0 0 Z " fill="#374F9B" transform="translate(355,247)"/>
<path d="M0 0 C0 79.86 0 159.72 0 242 C-9.55187053 241.31772353 -18.72654896 240.46016726 -28.125 238.875 C-29.41108154 238.65835693 -30.69716309 238.44171387 -32.0222168 238.21850586 C-41.03220645 236.66096036 -49.93390027 234.75741591 -58.8125 232.5625 C-59.88838379 232.29872559 -60.96426758 232.03495117 -62.07275391 231.76318359 C-68.48038355 230.11601074 -74.6965823 228.10539802 -80.9206543 225.87866211 C-82.09133579 225.46254292 -82.09133579 225.46254292 -83.28566742 225.03801727 C-85.19107739 224.36045409 -87.09562855 223.6804766 -89 223 C-89.30420953 203.76326343 -89.5331798 184.52701742 -89.67355824 165.28837109 C-89.74048337 156.3545949 -89.83165344 147.42231645 -89.98071289 138.48950195 C-90.1106326 130.69995207 -90.19423565 122.91148703 -90.22315043 115.12088376 C-90.24004489 110.99829657 -90.27948858 106.87881159 -90.37449074 102.75722313 C-90.97524911 75.65901945 -90.97524911 75.65901945 -86.20834351 69.63101196 C-83.17531748 66.70243324 -79.7713998 64.87191052 -76 63 C-74.17411257 61.58474715 -72.3757087 60.13225731 -70.625 58.625 C-69.74070313 57.90570313 -68.85640625 57.18640625 -67.9453125 56.4453125 C-63.75350526 52.9651118 -59.65601793 49.37966766 -55.54956055 45.79956055 C-51.03784637 41.87510903 -46.44674445 38.06573217 -41.80078125 34.30078125 C-38.53670217 31.61941084 -35.3274928 28.87937137 -32.125 26.125 C-31.53541504 25.61791504 -30.94583008 25.11083008 -30.33837891 24.58837891 C-29.74847168 24.08097168 -29.15856445 23.57356445 -28.55078125 23.05078125 C-1.74976168 0 -1.74976168 0 0 0 Z " fill="#E3292B" transform="translate(248,358)"/>
<path d="M0 0 C8.14727181 5.56324904 12.9531365 13.31364104 15.78125 22.6796875 C15.78125 23.6696875 15.78125 24.6596875 15.78125 25.6796875 C-0.4975652 27.06185105 -0.4975652 27.06185105 -4.5390625 23.81640625 C-5.96875 21.4296875 -5.96875 21.4296875 -7.12890625 18.9453125 C-8.7878131 15.49668894 -10.89715801 14.45120323 -14.21875 12.6796875 C-20.71001489 10.51593254 -29.38564593 10.38820279 -35.71875 13.1796875 C-40.87161732 16.29794627 -43.95085246 21.14389241 -46.59375 26.4296875 C-48.61269248 36.92818841 -47.03247573 44.55048543 -41.46875 53.4921875 C-36.26013811 58.55611572 -31.54450844 59.95246582 -24.28125 60.1796875 C-18.33290013 60.00098171 -13.13793517 59.19804511 -8.21875 55.6796875 C-7.22875 54.3596875 -6.23875 53.0396875 -5.21875 51.6796875 C-11.15875 51.6796875 -17.09875 51.6796875 -23.21875 51.6796875 C-23.21875 46.7296875 -23.21875 41.7796875 -23.21875 36.6796875 C-10.34875 36.6796875 2.52125 36.6796875 15.78125 36.6796875 C15.78125 50.30679996 14.55258856 57.90881037 5.28125 67.515625 C-5.33485303 76.70518918 -18.41879442 77.62823669 -31.83544922 76.92236328 C-37.20859258 76.37525157 -41.62696685 74.41444618 -46.21875 71.6796875 C-46.96253906 71.24527344 -47.70632813 70.81085938 -48.47265625 70.36328125 C-57.09921326 64.61769964 -61.89314651 55.93256272 -64.55859375 46.1015625 C-66.82431804 34.35733481 -65.42384498 23.0836922 -59.48828125 12.6328125 C-55.28036492 6.41752691 -50.84517809 2.17260129 -44.21875 -1.3203125 C-43.54070313 -1.73152344 -42.86265625 -2.14273438 -42.1640625 -2.56640625 C-29.82376388 -8.91221817 -11.56324698 -6.88094626 0 0 Z " fill="#2E3192" transform="translate(562.21875,748.3203125)"/>
<path d="M0 0 C17 0 17 0 21.23046875 4.0390625 C22.27946663 5.86611728 23.26291366 7.73194273 24.1875 9.625 C25.30931492 11.63516659 26.43307422 13.64424908 27.55859375 15.65234375 C28.11530762 16.69503418 28.67202148 17.73772461 29.24560547 18.81201172 C32.15608994 24.10078242 35.46609117 29.12549534 38.75 34.1875 C39.91305943 36.01330399 41.07464216 37.84004994 42.234375 39.66796875 C43.79968939 42.13015338 45.38139313 44.57208969 47 47 C47.33 31.49 47.66 15.98 48 0 C53.28 0 58.56 0 64 0 C64 26.4 64 52.8 64 80 C47 80 47 80 42.76953125 75.9609375 C41.72053337 74.13388272 40.73708634 72.26805727 39.8125 70.375 C38.69068508 68.36483341 37.56692578 66.35575092 36.44140625 64.34765625 C35.88469238 63.30496582 35.32797852 62.26227539 34.75439453 61.18798828 C31.84391006 55.89921758 28.53390883 50.87450466 25.25 45.8125 C24.08694057 43.98669601 22.92535784 42.15995006 21.765625 40.33203125 C20.20031061 37.86984662 18.61860687 35.42791031 17 33 C16.67 48.51 16.34 64.02 16 80 C10.72 80 5.44 80 0 80 C0 53.6 0 27.2 0 0 Z " fill="#2E3192" transform="translate(423,744)"/>
<path d="M0 0 C0.84272461 0.00829834 1.68544922 0.01659668 2.55371094 0.02514648 C10.83420721 0.25087596 16.22793948 2.10348436 22.5 7.5625 C27.17932687 12.58924789 28.625 18.70732415 28.625 25.4375 C23.015 25.4375 17.405 25.4375 11.625 25.4375 C10.635 23.4575 9.645 21.4775 8.625 19.4375 C4.14832547 16.45305031 -0.12892276 16.96758706 -5.375 17.4375 C-9.42859492 18.81744721 -10.74214766 20.78828733 -12.6875 24.4375 C-13.97394659 27.12225811 -14.375 28.39051277 -14.375 31.4375 C-13.446875 30.798125 -12.51875 30.15875 -11.5625 29.5 C-4.94684891 25.21928459 2.98122384 25.75818299 10.625 26.4375 C17.89032905 28.02394876 22.51310748 32.39780963 26.625 38.4375 C30.66793544 45.08460381 30.38628947 52.90919298 29.625 60.4375 C27.86689375 67.48882936 24.65402227 73.82254375 18.41015625 77.875 C8.86654494 83.31965345 -1.79380184 83.99117765 -12.5390625 81.7890625 C-19.83085925 79.14776151 -25.00003299 74.34311699 -28.6875 67.5625 C-32.35611253 59.12745432 -32.73942962 50.73138206 -32.75 41.625 C-32.77449219 40.52607422 -32.79898438 39.42714844 -32.82421875 38.29492188 C-32.86280816 27.38055011 -30.47946454 16.60875299 -22.58984375 8.6328125 C-15.52344962 2.07018827 -9.51438233 -0.11992125 0 0 Z M-11.375 47.4375 C-13.27311091 50.57350933 -13.38178943 52.24739602 -13.25 55.9375 C-12.14423893 60.36054429 -10.47662453 63.17475921 -6.515625 65.5546875 C-1.93640315 67.4431987 2.98243141 67.11595224 7.5 65.25 C10.61307971 62.59472613 12.28891508 60.43554331 12.98046875 56.32421875 C13.24460832 52.07656896 12.98571501 49.29644003 10.25 45.9375 C6.05566017 41.94289064 3.03367461 42.03810849 -2.60546875 42.08984375 C-6.99566745 42.64094063 -8.49622472 44.11583622 -11.375 47.4375 Z " fill="#EE2B2A" transform="translate(717.375,742.5625)"/>
<path d="M0 0 C8.87242572 6.17212224 13.76676726 13.89419229 16.6328125 24.296875 C18.47357758 37.8480392 18.26849669 52.89012403 10.1875 64.4375 C9.15960702 65.65507896 8.09727494 66.84455627 7 68 C6.47535156 68.55300781 5.95070313 69.10601563 5.41015625 69.67578125 C-2.59333364 77.26497284 -11.29451155 78.60263608 -21.95556641 78.46826172 C-32.01362359 78.08852483 -39.63915415 75.47865004 -46.9921875 68.40234375 C-56.5306884 56.98954598 -58.08469404 43.29433431 -57 29 C-55.48494651 18.08906855 -50.98074328 8.40714777 -42.2265625 1.47265625 C-30.9142347 -6.00935705 -11.70221479 -7.64904981 0 0 Z M-34.6875 17.6875 C-40.74407941 25.73688942 -40.89229883 34.22527195 -40 44 C-38.59075098 50.87847736 -36.2836715 55.6611351 -30.68359375 59.9765625 C-25.43086543 63.16963633 -18.90780919 62.51720648 -13 62 C-8.11478977 59.73186668 -5.09358651 56.38258089 -2 52 C1.08705296 43.22456624 1.95565542 31.51127254 -1.6875 22.75 C-4.34435356 17.89631346 -7.80022174 14.06541715 -13 12 C-21.69387359 11.1351056 -28.30765266 11.30765266 -34.6875 17.6875 Z " fill="#EE2B2A" transform="translate(813,747)"/>
<path d="M0 0 C43.76470588 0 43.76470588 0 53.3125 6.125 C58.69779309 11.88601121 61.28850365 17.5736416 61.625 25.5 C61.29904239 32.78257932 59.39048798 38.77064412 54.02734375 43.87890625 C50.8492383 46.34416562 47.59821027 48.22171947 44 50 C44.41362793 50.73114014 44.82725586 51.46228027 45.25341797 52.21557617 C46.7952915 54.94448882 48.33436075 57.67495853 49.87158203 60.40649414 C50.53583661 61.58550562 51.20118601 62.76390101 51.86767578 63.94165039 C52.82876727 65.64044065 53.78552197 67.34168211 54.7421875 69.04296875 C55.3182373 70.06414795 55.89428711 71.08532715 56.48779297 72.13745117 C57.85054283 74.71708341 58.97829531 77.27033833 60 80 C53.66063551 81.32544263 47.1605304 82.54687275 41 80 C35.54932794 74.67442943 32.35688224 67.44505254 29.23242188 60.5871582 C28.02175393 57.93025113 28.02175393 57.93025113 26.34570312 55.29370117 C25 53 25 53 25 51 C22.03 51 19.06 51 16 51 C16 60.57 16 70.14 16 80 C10.72 80 5.44 80 0 80 C0 53.6 0 27.2 0 0 Z M16 14 C16 21.59 16 29.18 16 37 C28.89266832 37.78640778 28.89266832 37.78640778 40.796875 33.77734375 C43.2390535 31.20482426 44.00839882 28.95296662 44.625 25.5 C44.00839882 22.04703338 43.2390535 19.79517574 40.796875 17.22265625 C34.01781731 12.6099496 23.76751933 13.81723484 16 14 Z " fill="#2E3192" transform="translate(80,744)"/>
<path d="M0 0 C8.14727181 5.56324904 12.9531365 13.31364104 15.78125 22.6796875 C15.78125 23.6696875 15.78125 24.6596875 15.78125 25.6796875 C-0.4975652 27.06185105 -0.4975652 27.06185105 -4.5390625 23.81640625 C-5.96875 21.4296875 -5.96875 21.4296875 -7.12890625 18.9453125 C-8.7878131 15.49668894 -10.89715801 14.45120323 -14.21875 12.6796875 C-20.71001489 10.51593254 -29.38564593 10.38820279 -35.71875 13.1796875 C-40.88545375 16.30631938 -43.99033546 21.1670214 -46.59375 26.4921875 C-48.48216623 36.12311028 -46.95538887 43.31166511 -42.59375 51.8671875 C-38.45436795 56.7690873 -34.26790161 59.23850337 -27.87109375 60.1640625 C-20.01080356 60.47197376 -13.60326793 59.47433528 -7.21875 54.6796875 C-4.58089044 51.44830954 -3.08637055 48.41492859 -1.21875 44.6796875 C4.39125 44.6796875 10.00125 44.6796875 15.78125 44.6796875 C15.47651048 54.12661256 11.96666146 60.97282087 5.09375 67.4921875 C-6.44910729 76.8999498 -19.92775239 78.0112182 -34.21875 76.6796875 C-38.65169372 75.59483207 -42.30709754 74.00937625 -46.21875 71.6796875 C-46.96253906 71.24527344 -47.70632812 70.81085938 -48.47265625 70.36328125 C-57.09921326 64.61769964 -61.89314651 55.93256272 -64.55859375 46.1015625 C-66.82431804 34.35733481 -65.42384498 23.0836922 -59.48828125 12.6328125 C-55.28036492 6.41752691 -50.84517809 2.17260129 -44.21875 -1.3203125 C-43.54070312 -1.73152344 -42.86265625 -2.14273438 -42.1640625 -2.56640625 C-29.82376388 -8.91221817 -11.56324698 -6.88094626 0 0 Z " fill="#2E3192" transform="translate(298.21875,748.3203125)"/>
<path d="M0 0 C5.28 0 10.56 0 16 0 C16.01981934 1.34634521 16.03963867 2.69269043 16.06005859 4.07983398 C16.1365095 9.10638159 16.22516441 14.13265454 16.31738281 19.15893555 C16.35551012 21.32847647 16.39039043 23.49807712 16.421875 25.66772461 C16.46788014 28.79823047 16.52581439 31.92833094 16.5859375 35.05859375 C16.59748871 36.01833603 16.60903992 36.97807831 16.62094116 37.96690369 C16.80375867 46.43418969 17.3954692 54.27456304 23 61 C27.12276083 64.1069007 30.33008845 64.43235658 35.4375 64.4375 C36.71496094 64.45683594 37.99242187 64.47617187 39.30859375 64.49609375 C43.5923125 63.92039821 45.69077803 62.7383328 49 60 C50.4717114 58.18278356 50.4717114 58.18278356 51.3125 56.1875 C51.61800781 55.56230469 51.92351562 54.93710937 52.23828125 54.29296875 C54.35716003 47.91460031 54.19921205 41.12172364 54.31640625 34.47265625 C54.33718735 33.48373886 54.35796844 32.49482147 54.37937927 31.47593689 C54.44440554 28.33819062 54.50354018 25.20036554 54.5625 22.0625 C54.60572991 19.92642437 54.64934558 17.7903565 54.69335938 15.65429688 C54.80003843 10.43627728 54.90143616 5.21817894 55 0 C60.28 0 65.56 0 71 0 C71.07466132 7.04343398 71.12884281 14.08663295 71.16479492 21.13037109 C71.17979713 23.52201353 71.20020547 25.91362885 71.22631836 28.30517578 C71.26308043 31.76081064 71.27981264 35.21607892 71.29296875 38.671875 C71.30845261 39.72550232 71.32393646 40.77912964 71.33988953 41.86468506 C71.34250929 53.65922988 69.15129322 64.15631894 61 73 C51.20112327 81.34462647 40.55256844 81.78526686 28.2421875 81.1953125 C20.18752494 80.49368684 13.34121582 77.0263456 8 71 C0.60606508 61.80808637 -0.456619 50.97239821 -0.29296875 39.55078125 C-0.28872391 38.41215134 -0.28447906 37.27352142 -0.28010559 36.10038757 C-0.26346525 32.50417281 -0.22584042 28.90854213 -0.1875 25.3125 C-0.17243425 22.85743003 -0.15874917 20.40235118 -0.14648438 17.94726562 C-0.11360973 11.9646226 -0.06192971 5.98240993 0 0 Z " fill="#2E3192" transform="translate(151,744)"/>
<path d="M0 0 C5.28 0 10.56 0 16 0 C16.33 8.91 16.66 17.82 17 27 C23.51309338 19.43882263 29.98724765 11.87293149 36.2578125 4.109375 C39.61866494 0.04018146 39.61866494 0.04018146 42.15478516 -0.22705078 C43.02409668 -0.21657715 43.8934082 -0.20610352 44.7890625 -0.1953125 C45.73007812 -0.18886719 46.67109375 -0.18242188 47.640625 -0.17578125 C48.62546875 -0.15902344 49.6103125 -0.14226563 50.625 -0.125 C51.61757813 -0.11597656 52.61015625 -0.10695313 53.6328125 -0.09765625 C56.08878134 -0.07404116 58.54427168 -0.04110799 61 0 C57.73319159 4.44849305 54.45080353 8.76570844 50.6875 12.8125 C46.62996536 17.25320823 42.79207089 21.83188025 39.0234375 26.51953125 C37.36162228 28.55669856 35.64503591 30.49632802 33.875 32.4375 C31.74606795 34.73611486 31.74606795 34.73611486 32.22973633 36.93139648 C33.05647404 39.15166548 34.04659163 40.75309533 35.44921875 42.66015625 C36.21721802 43.71372314 36.21721802 43.71372314 37.00073242 44.78857422 C37.55736572 45.53896973 38.11399902 46.28936523 38.6875 47.0625 C39.25895752 47.84383301 39.83041504 48.62516602 40.41918945 49.43017578 C43.56392407 53.72298812 46.73690417 57.99487606 49.90625 62.26953125 C50.53829346 63.12345459 51.17033691 63.97737793 51.8215332 64.85717773 C53.04572897 66.50903316 54.27332146 68.1583778 55.50463867 69.80493164 C56.34345581 70.93402954 56.34345581 70.93402954 57.19921875 72.0859375 C57.69252686 72.7464209 58.18583496 73.4069043 58.6940918 74.08740234 C59.99537763 75.99323021 61.01952214 77.91369167 62 80 C55.06456173 81.15082439 47.82363764 82.07736251 41 80 C35.65477456 76.03312613 32.5139946 70.00294521 29.31640625 64.28759766 C27.49468819 61.12188953 25.38769034 58.28948825 23.1875 55.375 C22.56230469 54.51648438 21.93710937 53.65796875 21.29296875 52.7734375 C20.86628906 52.18820312 20.43960937 51.60296875 20 51 C19.01 51.66 18.02 52.32 17 53 C16.48895078 55.80810144 16.48895078 55.80810144 16.48828125 59.1015625 C16.45283203 60.31328125 16.41738281 61.525 16.38085938 62.7734375 C16.35830078 64.04445313 16.33574219 65.31546875 16.3125 66.625 C16.27833984 67.90375 16.24417969 69.1825 16.20898438 70.5 C16.12628113 73.6663529 16.06147139 76.83316376 16 80 C10.72 80 5.44 80 0 80 C0 53.6 0 27.2 0 0 Z " fill="#2E3192" transform="translate(324,744)"/>
<path d="M0 0 C1.12595581 0.0141394 1.12595581 0.0141394 2.2746582 0.02856445 C10.58082447 0.25569679 16.61019725 2.15213803 22.5625 8.375 C26.01866151 13.98857909 27.2880932 18.84466121 26.5625 25.375 C25.33537348 29.91039327 23.68693006 33.80422279 20.5625 37.375 C21.03300781 37.72691406 21.50351562 38.07882812 21.98828125 38.44140625 C27.42663172 42.75380424 30.10174424 46.41974834 30.91015625 53.359375 C31.30691129 62.02694663 29.72275128 68.60888688 23.953125 75.21875 C17.39622237 81.35456714 9.90557664 82.94265691 1.1875 82.875 C0.35331543 82.87072998 -0.48086914 82.86645996 -1.34033203 82.86206055 C-9.61777015 82.63361165 -14.96325099 80.24503179 -21.3125 75 C-26.40924017 68.70402685 -27.94561478 64.36813486 -28.4375 56.375 C-22.4975 56.375 -16.5575 56.375 -10.4375 56.375 C-9.4475 58.355 -8.4575 60.335 -7.4375 62.375 C-4.4567679 65.34943034 -2.15970024 65.82884521 2 65.875 C5.95424958 65.75341211 7.34031657 65.51876575 10.75 63.3125 C13.02584187 59.62406662 13.26008716 57.63803263 12.5625 53.375 C10.88848452 50.68201857 9.49197382 49.66285943 6.46875 48.7265625 C4.17360671 48.19867954 1.88386573 47.77037595 -0.4375 47.375 C-2.0875 47.045 -3.7375 46.715 -5.4375 46.375 C-5.4375 42.085 -5.4375 37.795 -5.4375 33.375 C-2.67057292 32.72395833 0.09635417 32.07291667 2.86328125 31.421875 C5.96094846 30.22046427 7.00259275 29.28039425 8.5625 26.375 C8.56918717 22.75442732 8.56918717 22.75442732 7.5625 19.375 C4.46469052 17.30979368 3.6084519 17.08022976 0.0625 17.0625 C-0.7109375 17.04574219 -1.484375 17.02898438 -2.28125 17.01171875 C-5.05309426 17.47871425 -5.79303435 18.10429888 -7.4375 20.375 C-8.0975 22.355 -8.7575 24.335 -9.4375 26.375 C-15.3775 26.375 -21.3175 26.375 -27.4375 26.375 C-26.920983 18.11072794 -25.40982274 11.79651805 -19.125 6.0625 C-13.30040709 1.14050744 -7.38717313 -0.1429349 0 0 Z " fill="#EE2B2A" transform="translate(644.4375,742.625)"/>
<path d="M0 0 C0 10.56 0 21.12 0 32 C-27.44788362 47.64234228 -58.09113433 57.81822687 -89 64 C-89 55.09 -89 46.18 -89 37 C-86.710625 36.360625 -84.42125 35.72125 -82.0625 35.0625 C-54.40888243 27.01726115 -28.42220393 15.81185713 -3.77392578 0.92700195 C-2 0 -2 0 0 0 Z " fill="#000000" transform="translate(466,550)"/>
<path d="M0 0 C0 7.92 0 15.84 0 24 C-17.38386811 27.8630818 -34.69195066 28.30783496 -52.45214844 28.20581055 C-55.78848773 28.18728631 -59.12455153 28.18530363 -62.4609375 28.18554688 C-64.61458571 28.18063868 -66.76823207 28.17481344 -68.921875 28.16796875 C-69.90323425 28.16685593 -70.88459351 28.1657431 -71.89569092 28.16459656 C-72.82826721 28.15821671 -73.76084351 28.15183685 -74.72167969 28.14526367 C-75.52659851 28.14145187 -76.33151733 28.13764008 -77.16082764 28.13371277 C-81.12088181 27.9472113 -85.05980414 27.43779954 -89 27 C-89 20.73 -89 14.46 -89 8 C-87.03804688 7.96261719 -85.07609375 7.92523437 -83.0546875 7.88671875 C-57.12605751 7.29555441 -31.58503637 5.35586517 -6.08935547 0.31958008 C-4 0 -4 0 0 0 Z " fill="#000000" transform="translate(357,593)"/>
<path d="M0 0 C19.8 0 39.6 0 60 0 C60 4.62 60 9.24 60 14 C52.74 14 45.48 14 38 14 C38 35.78 38 57.56 38 80 C32.72 80 27.44 80 22 80 C22 58.22 22 36.44 22 14 C14.74 14 7.48 14 0 14 C0 9.38 0 4.76 0 0 Z " fill="#2E3192" transform="translate(9,744)"/>
<path d="M0 0 C5.50231832 1.48311675 10.9923752 2.98354555 16.453125 4.61328125 C40.21199445 11.63075543 64.4121223 16.05874286 89 19 C89 24.61 89 30.22 89 36 C80.49799888 35.4370383 72.38634581 34.30365929 64.0625 32.5 C62.86173828 32.24009277 61.66097656 31.98018555 60.42382812 31.71240234 C39.66693789 27.05098862 19.55171254 20.35329278 0 12 C0 8.04 0 4.08 0 0 Z " fill="#000000" transform="translate(159,581)"/>
<path d="M0 0 C5.28 0 10.56 0 16 0 C16 26.4 16 52.8 16 80 C10.72 80 5.44 80 0 80 C0 53.6 0 27.2 0 0 Z " fill="#2E3192" transform="translate(396,744)"/>
<path d="M0 0 C10 0 10 0 12.62109375 2.046875 C13.22050781 2.93890625 13.81992187 3.8309375 14.4375 4.75 C15.05496094 5.63171875 15.67242188 6.5134375 16.30859375 7.421875 C16.86675781 8.27265625 17.42492187 9.1234375 18 10 C18.99 11.32 19.98 12.64 21 14 C21.33 9.38 21.66 4.76 22 0 C25.3 0 28.6 0 32 0 C32 10.56 32 21.12 32 32 C22 32 22 32 19.37890625 29.953125 C18.77949219 29.06109375 18.18007813 28.1690625 17.5625 27.25 C16.94503906 26.36828125 16.32757812 25.4865625 15.69140625 24.578125 C15.13324219 23.72734375 14.57507813 22.8765625 14 22 C13.01 20.68 12.02 19.36 11 18 C10.67 22.62 10.34 27.24 10 32 C6.7 32 3.4 32 0 32 C0 21.44 0 10.88 0 0 Z " fill="#000000" transform="translate(586,864)"/>
<path d="M0 0 C10 0 10 0 12.62109375 2.046875 C13.22050781 2.93890625 13.81992187 3.8309375 14.4375 4.75 C15.05496094 5.63171875 15.67242187 6.5134375 16.30859375 7.421875 C16.86675781 8.27265625 17.42492187 9.1234375 18 10 C18.99 11.32 19.98 12.64 21 14 C21.33 9.38 21.66 4.76 22 0 C25.3 0 28.6 0 32 0 C32 10.56 32 21.12 32 32 C22 32 22 32 19.37890625 29.953125 C18.77949219 29.06109375 18.18007813 28.1690625 17.5625 27.25 C16.94503906 26.36828125 16.32757813 25.4865625 15.69140625 24.578125 C15.13324219 23.72734375 14.57507813 22.8765625 14 22 C13.01 20.68 12.02 19.36 11 18 C10.67 22.62 10.34 27.24 10 32 C6.7 32 3.4 32 0 32 C0 21.44 0 10.88 0 0 Z " fill="#000000" transform="translate(306,864)"/>
<path d="M0 0 C3.361875 -0.0825 6.72375 -0.165 10.1875 -0.25 C11.23832764 -0.28641602 12.28915527 -0.32283203 13.37182617 -0.36035156 C17.74976959 -0.41240497 20.29095594 -0.43599048 24.09375 1.90234375 C27.05220004 5.15785127 27.88404323 6.95638906 28.375 11.375 C27.93716093 15.60744433 26.58860406 17.68335105 24 21 C25.1357441 23.55542423 26.34872527 25.43077828 28.125 27.625 C30 30 30 30 30 32 C25.89926975 32.47775498 22.0819057 32.70287917 18 32 C15.78222793 30.12245432 14.54170091 28.34892247 13.0859375 25.84765625 C12.13064552 23.83844726 12.13064552 23.83844726 10 23 C10 25.97 10 28.94 10 32 C6.7 32 3.4 32 0 32 C0 21.44 0 10.88 0 0 Z M10 8 C10 9.98 10 11.96 10 14 C12.35367713 14.6878236 12.35367713 14.6878236 15 15 C15.99 14.34 16.98 13.68 18 13 C17.50243908 10.24358584 17.50243908 10.24358584 16 8 C14.00041636 7.95919217 11.99954746 7.95745644 10 8 Z " fill="#000000" transform="translate(379,864)"/>
<path d="M0 0 C3.361875 -0.0825 6.72375 -0.165 10.1875 -0.25 C11.23832764 -0.28641602 12.28915527 -0.32283203 13.37182617 -0.36035156 C17.74976959 -0.41240497 20.29095594 -0.43599048 24.09375 1.90234375 C27.05220004 5.15785127 27.88404323 6.95638906 28.375 11.375 C27.93716093 15.60744433 26.58860406 17.68335105 24 21 C25.1357441 23.55542423 26.34872527 25.43077828 28.125 27.625 C30 30 30 30 30 32 C25.89926975 32.47775498 22.0819057 32.70287917 18 32 C15.78222793 30.12245432 14.54170091 28.34892247 13.0859375 25.84765625 C12.13064552 23.83844726 12.13064552 23.83844726 10 23 C10 25.97 10 28.94 10 32 C6.7 32 3.4 32 0 32 C0 21.44 0 10.88 0 0 Z M10 8 C10 9.98 10 11.96 10 14 C12.35367713 14.6878236 12.35367713 14.6878236 15 15 C15.99 14.34 16.98 13.68 18 13 C17.50243908 10.24358584 17.50243908 10.24358584 16 8 C14.00041636 7.95919217 11.99954746 7.95745644 10 8 Z " fill="#000000" transform="translate(242,864)"/>
<path d="M0 0 C3.361875 -0.0825 6.72375 -0.165 10.1875 -0.25 C11.23832764 -0.28641602 12.28915527 -0.32283203 13.37182617 -0.36035156 C17.74976959 -0.41240497 20.29095594 -0.43599048 24.09375 1.90234375 C27.05220004 5.15785127 27.88404323 6.95638906 28.375 11.375 C27.93716093 15.60744433 26.58860406 17.68335105 24 21 C25.1357441 23.55542423 26.34872527 25.43077828 28.125 27.625 C30 30 30 30 30 32 C25.89926975 32.47775498 22.0819057 32.70287917 18 32 C15.78222793 30.12245432 14.54170091 28.34892247 13.0859375 25.84765625 C12.13064552 23.83844726 12.13064552 23.83844726 10 23 C10 25.97 10 28.94 10 32 C6.7 32 3.4 32 0 32 C0 21.44 0 10.88 0 0 Z M10 8 C10 9.98 10 11.96 10 14 C12.35367713 14.6878236 12.35367713 14.6878236 15 15 C15.99 14.34 16.98 13.68 18 13 C17.50243908 10.24358584 17.50243908 10.24358584 16 8 C14.00041636 7.95919217 11.99954746 7.95745644 10 8 Z " fill="#000000" transform="translate(122,864)"/>
<path d="M0 0 C3.96989085 2.31454891 6.79598314 4.70184069 8.5546875 9.046875 C9.82261483 14.31365007 9.60233532 18.02083035 7.5546875 23.046875 C4.01659929 27.25433125 0.24084702 30.64065742 -5.3125 31.48046875 C-11.93361504 31.4890676 -16.18477111 31.21147026 -21.4453125 27.046875 C-25.13164134 23.26602491 -25.7489263 20.16558631 -25.9453125 15.046875 C-25.7489263 9.92816369 -25.13164134 6.82772509 -21.4453125 3.046875 C-15.2336338 -1.87070397 -7.49113313 -2.91986659 0 0 Z M-13.1328125 8.734375 C-15.72679617 11.32835867 -16.4453125 12.40038761 -16.4453125 16.046875 C-14.82375621 19.53322101 -13.68077958 20.88989694 -10.4453125 23.046875 C-7.35415323 22.85367755 -5.20359882 22.56983108 -2.6328125 20.796875 C-1.04500834 18.45695308 -0.58027326 16.88105105 -0.4453125 14.046875 C-2.06686879 10.56052899 -3.20984542 9.20385306 -6.4453125 7.046875 C-10.4096151 6.69236291 -10.4096151 6.69236291 -13.1328125 8.734375 Z " fill="#000000" transform="translate(486.4453125,864.953125)"/>
<path d="M0 0 C3.96989085 2.31454891 6.79598314 4.70184069 8.5546875 9.046875 C9.82261483 14.31365007 9.60233532 18.02083035 7.5546875 23.046875 C4.01659929 27.25433125 0.24084702 30.64065742 -5.3125 31.48046875 C-11.93361504 31.4890676 -16.18477111 31.21147026 -21.4453125 27.046875 C-25.13164134 23.26602491 -25.7489263 20.16558631 -25.9453125 15.046875 C-25.7489263 9.92816369 -25.13164134 6.82772509 -21.4453125 3.046875 C-15.2336338 -1.87070397 -7.49113313 -2.91986659 0 0 Z M-13.1328125 8.734375 C-15.72679617 11.32835867 -16.4453125 12.40038761 -16.4453125 16.046875 C-14.82375621 19.53322101 -13.68077958 20.88989694 -10.4453125 23.046875 C-7.35415323 22.85367755 -5.20359882 22.56983108 -2.6328125 20.796875 C-1.04500834 18.45695308 -0.58027326 16.88105105 -0.4453125 14.046875 C-2.06686879 10.56052899 -3.20984542 9.20385306 -6.4453125 7.046875 C-10.4096151 6.69236291 -10.4096151 6.69236291 -13.1328125 8.734375 Z " fill="#000000" transform="translate(68.4453125,864.953125)"/>
<path d="M0 0 C1.37478516 0.01740234 1.37478516 0.01740234 2.77734375 0.03515625 C3.69644531 0.04417969 4.61554687 0.05320312 5.5625 0.0625 C6.27277344 0.07410156 6.98304688 0.08570313 7.71484375 0.09765625 C9.57341282 4.16954991 11.42461042 8.2446884 13.26904297 12.32299805 C13.89755822 13.70998226 14.52808042 15.09605884 15.16064453 16.48120117 C16.06942159 18.47209346 16.9709362 20.46613597 17.87109375 22.4609375 C18.41572266 23.66016846 18.96035156 24.85939941 19.52148438 26.0949707 C20.71484375 29.09765625 20.71484375 29.09765625 20.71484375 32.09765625 C18.92391184 32.17851772 17.13194747 32.23678327 15.33984375 32.28515625 C13.84324219 32.33736328 13.84324219 32.33736328 12.31640625 32.390625 C11.45789063 32.29394531 10.599375 32.19726562 9.71484375 32.09765625 C9.05484375 31.10765625 8.39484375 30.11765625 7.71484375 29.09765625 C5.35199511 28.61975107 5.35199511 28.61975107 2.71484375 28.72265625 C1.82796875 28.71492187 0.94109375 28.7071875 0.02734375 28.69921875 C-0.73578125 28.83070313 -1.49890625 28.9621875 -2.28515625 29.09765625 C-2.94515625 30.08765625 -3.60515625 31.07765625 -4.28515625 32.09765625 C-6.88671875 32.390625 -6.88671875 32.390625 -9.91015625 32.28515625 C-11.41449219 32.24455078 -11.41449219 32.24455078 -12.94921875 32.203125 C-13.72007812 32.16832031 -14.4909375 32.13351562 -15.28515625 32.09765625 C-14.70776942 27.7154696 -13.61106452 24.11127829 -11.81640625 20.078125 C-11.32785156 18.97404297 -10.83929687 17.86996094 -10.3359375 16.73242188 C-9.82417969 15.59482422 -9.31242188 14.45722656 -8.78515625 13.28515625 C-8.27339844 12.12822266 -7.76164063 10.97128906 -7.234375 9.77929688 C-2.93751557 0.12553485 -2.93751557 0.12553485 0 0 Z M1.71484375 15.09765625 C1.38484375 16.74765625 1.05484375 18.39765625 0.71484375 20.09765625 C2.03484375 20.09765625 3.35484375 20.09765625 4.71484375 20.09765625 C4.05484375 18.44765625 3.39484375 16.79765625 2.71484375 15.09765625 C2.38484375 15.09765625 2.05484375 15.09765625 1.71484375 15.09765625 Z " fill="#000000" transform="translate(664.28515625,863.90234375)"/>
<path d="M0 0 C1.37478516 0.01740234 1.37478516 0.01740234 2.77734375 0.03515625 C3.69644531 0.04417969 4.61554687 0.05320312 5.5625 0.0625 C6.27277344 0.07410156 6.98304688 0.08570313 7.71484375 0.09765625 C9.57341282 4.16954991 11.42461042 8.2446884 13.26904297 12.32299805 C13.89755822 13.70998226 14.52808042 15.09605884 15.16064453 16.48120117 C16.06942159 18.47209346 16.9709362 20.46613597 17.87109375 22.4609375 C18.41572266 23.66016846 18.96035156 24.85939941 19.52148438 26.0949707 C20.71484375 29.09765625 20.71484375 29.09765625 20.71484375 32.09765625 C18.92391184 32.17851772 17.13194747 32.23678327 15.33984375 32.28515625 C13.84324219 32.33736328 13.84324219 32.33736328 12.31640625 32.390625 C11.45789063 32.29394531 10.599375 32.19726562 9.71484375 32.09765625 C9.05484375 31.10765625 8.39484375 30.11765625 7.71484375 29.09765625 C5.35199511 28.61975107 5.35199511 28.61975107 2.71484375 28.72265625 C1.82796875 28.71492187 0.94109375 28.7071875 0.02734375 28.69921875 C-0.73578125 28.83070313 -1.49890625 28.9621875 -2.28515625 29.09765625 C-2.94515625 30.08765625 -3.60515625 31.07765625 -4.28515625 32.09765625 C-6.88671875 32.390625 -6.88671875 32.390625 -9.91015625 32.28515625 C-11.41449219 32.24455078 -11.41449219 32.24455078 -12.94921875 32.203125 C-13.72007812 32.16832031 -14.4909375 32.13351562 -15.28515625 32.09765625 C-14.70776942 27.7154696 -13.61106452 24.11127829 -11.81640625 20.078125 C-11.32785156 18.97404297 -10.83929687 17.86996094 -10.3359375 16.73242188 C-9.82417969 15.59482422 -9.31242188 14.45722656 -8.78515625 13.28515625 C-8.27339844 12.12822266 -7.76164063 10.97128906 -7.234375 9.77929688 C-2.93751557 0.12553485 -2.93751557 0.12553485 0 0 Z M1.71484375 15.09765625 C1.38484375 16.74765625 1.05484375 18.39765625 0.71484375 20.09765625 C2.03484375 20.09765625 3.35484375 20.09765625 4.71484375 20.09765625 C4.05484375 18.44765625 3.39484375 16.79765625 2.71484375 15.09765625 C2.38484375 15.09765625 2.05484375 15.09765625 1.71484375 15.09765625 Z " fill="#000000" transform="translate(560.28515625,863.90234375)"/>
<path d="M0 0 C1.37478516 0.01740234 1.37478516 0.01740234 2.77734375 0.03515625 C3.69644531 0.04417969 4.61554688 0.05320312 5.5625 0.0625 C6.27277344 0.07410156 6.98304688 0.08570313 7.71484375 0.09765625 C9.57341282 4.16954991 11.42461042 8.2446884 13.26904297 12.32299805 C13.89755822 13.70998226 14.52808042 15.09605884 15.16064453 16.48120117 C16.06942159 18.47209346 16.9709362 20.46613597 17.87109375 22.4609375 C18.41572266 23.66016846 18.96035156 24.85939941 19.52148438 26.0949707 C20.71484375 29.09765625 20.71484375 29.09765625 20.71484375 32.09765625 C18.92391184 32.17851772 17.13194747 32.23678327 15.33984375 32.28515625 C13.84324219 32.33736328 13.84324219 32.33736328 12.31640625 32.390625 C11.45789063 32.29394531 10.599375 32.19726562 9.71484375 32.09765625 C9.05484375 31.10765625 8.39484375 30.11765625 7.71484375 29.09765625 C5.35199511 28.61975107 5.35199511 28.61975107 2.71484375 28.72265625 C1.82796875 28.71492187 0.94109375 28.7071875 0.02734375 28.69921875 C-0.73578125 28.83070313 -1.49890625 28.9621875 -2.28515625 29.09765625 C-2.94515625 30.08765625 -3.60515625 31.07765625 -4.28515625 32.09765625 C-6.88671875 32.390625 -6.88671875 32.390625 -9.91015625 32.28515625 C-11.41449219 32.24455078 -11.41449219 32.24455078 -12.94921875 32.203125 C-13.72007812 32.16832031 -14.4909375 32.13351562 -15.28515625 32.09765625 C-14.70776942 27.7154696 -13.61106452 24.11127829 -11.81640625 20.078125 C-11.32785156 18.97404297 -10.83929688 17.86996094 -10.3359375 16.73242188 C-9.82417969 15.59482422 -9.31242188 14.45722656 -8.78515625 13.28515625 C-8.27339844 12.12822266 -7.76164063 10.97128906 -7.234375 9.77929688 C-2.93751557 0.12553485 -2.93751557 0.12553485 0 0 Z M1.71484375 15.09765625 C1.38484375 16.74765625 1.05484375 18.39765625 0.71484375 20.09765625 C2.03484375 20.09765625 3.35484375 20.09765625 4.71484375 20.09765625 C4.05484375 18.44765625 3.39484375 16.79765625 2.71484375 15.09765625 C2.38484375 15.09765625 2.05484375 15.09765625 1.71484375 15.09765625 Z " fill="#000000" transform="translate(218.28515625,863.90234375)"/>
<path d="M0 0 C8.58 0 17.16 0 26 0 C26 2.64 26 5.28 26 8 C20.72 8 15.44 8 10 8 C10 9.32 10 10.64 10 12 C14.62 12 19.24 12 24 12 C24 14.64 24 17.28 24 20 C19.38 20 14.76 20 10 20 C10 21.32 10 22.64 10 24 C15.28 24 20.56 24 26 24 C26 26.64 26 29.28 26 32 C17.42 32 8.84 32 0 32 C0 21.44 0 10.88 0 0 Z " fill="#000000" transform="translate(346,864)"/>
<path d="M0 0 C2.8028966 1.03861379 4.57973607 2.19887336 7 4 C5.79618552 6.49361571 4.54571278 8.68143083 3 11 C1.9790625 10.7834375 1.9790625 10.7834375 0.9375 10.5625 C-2.36273082 9.93054091 -5.67144426 9.45686059 -9 9 C-6.12283687 10.91810876 -4.34757263 11.50728671 -1.0625 12.3125 C2.19830915 13.28025476 3.97931637 13.9836455 6.6875 16.125 C8.59628586 20.30614997 8.47246356 23.66351391 7 28 C4.05829534 31.35027475 2.37350039 31.83054216 -2.0078125 32.37109375 C-9.15467258 32.64469744 -13.94508586 31.79916182 -20 28 C-19.45276317 24.62537285 -18.9451 22.91765 -17 20 C-16.15308594 20.21462891 -16.15308594 20.21462891 -15.2890625 20.43359375 C-12.98953289 21.00258998 -10.68571651 21.54084995 -8.375 22.0625 C-7.21097656 22.32740234 -7.21097656 22.32740234 -6.0234375 22.59765625 C-4.016909 23.06500788 -4.016909 23.06500788 -2 23 C-2 22.34 -2 21.68 -2 21 C-2.80824219 20.90203125 -3.61648438 20.8040625 -4.44921875 20.703125 C-15.19409428 19.1996201 -15.19409428 19.1996201 -19 15 C-20.56935594 11.86128812 -20.35201103 9.46144178 -20 6 C-14.23734668 -0.9758435 -8.65117012 -0.79114026 0 0 Z " fill="#000000" transform="translate(708,864)"/>
<path d="M0 0 C3.3 0 6.6 0 10 0 C10.33 6.93 10.66 13.86 11 21 C13.475 21.99 13.475 21.99 16 23 C18.01797305 21.33910717 18.91536044 20.42606532 19.43237305 17.82348633 C19.45855713 17.00130615 19.48474121 16.17912598 19.51171875 15.33203125 C19.54716797 14.43935547 19.58261719 13.54667969 19.61914062 12.62695312 C19.64169922 11.69818359 19.66425781 10.76941406 19.6875 9.8125 C19.72166016 8.87212891 19.75582031 7.93175781 19.79101562 6.96289062 C19.87347151 4.6423464 19.93841303 2.32119183 20 0 C23.3 0 26.6 0 30 0 C30.08137993 3.35466148 30.14068359 6.70732391 30.1875 10.0625 C30.21263672 11.00544922 30.23777344 11.94839844 30.26367188 12.91992188 C30.32477303 18.7652661 29.84338709 22.85482337 27 28 C23.27228883 31.72771117 20.09750439 32.30418509 15 32.5 C9.90361668 32.31685859 6.80768914 31.61242303 3 28 C0.41101258 24.35654078 -0.36759881 21.93339549 -0.29296875 17.48046875 C-0.28330078 16.45888672 -0.27363281 15.43730469 -0.26367188 14.38476562 C-0.23853516 13.32966797 -0.21339844 12.27457031 -0.1875 11.1875 C-0.17396484 10.11306641 -0.16042969 9.03863281 -0.14648438 7.93164062 C-0.11122976 5.28754459 -0.05742566 2.64370744 0 0 Z " fill="#000000" transform="translate(84,864)"/>
<path d="M0 0 C2.90168357 2.00354342 5.24198413 4.21921802 7.625 6.8125 C6.625 9.8125 6.625 9.8125 4.3125 11 C1.625 11.8125 1.625 11.8125 -2.375 11.8125 C-3.035 10.8225 -3.695 9.8325 -4.375 8.8125 C-7.90982525 7.71277659 -9.72751676 7.5535067 -13.1875 8.9375 C-15.51475425 10.64945338 -15.51475425 10.64945338 -16.375 13.1875 C-16.375 16.67541917 -15.64762272 18.17332523 -13.375 20.8125 C-10.15119834 21.84137287 -8.26956729 22.12680743 -5.0625 21 C-3.22402178 19.90562675 -3.22402178 19.90562675 -2.375 17.8125 C4.25 18.5625 4.25 18.5625 7.625 20.8125 C6.06489422 25.02478561 3.1404607 27.15796845 -0.375 29.8125 C-6.33505735 31.79918578 -13.04280719 31.80121422 -18.8125 29.1875 C-22.48472384 27.04286107 -24.48385905 24.67042753 -26.375 20.8125 C-27.71139503 15.56237665 -27.41953297 11.83089912 -25.375 6.8125 C-18.72350782 -1.31710155 -9.84938445 -3.46552416 0 0 Z " fill="#000000" transform="translate(793.375,865.1875)"/>
<path d="M0 0 C3.196875 -0.061875 6.39375 -0.12375 9.6875 -0.1875 C11.18543091 -0.22846802 11.18543091 -0.22846802 12.71362305 -0.27026367 C17.61153283 -0.31615844 21.07464155 -0.28797351 25 3 C28.09845883 7.33784237 28.41893197 10.82898216 27.65234375 15.9453125 C26.6469778 19.11191423 24.79668458 20.36291634 22 22 C19.47524538 23.26237731 17.68799534 23.09856404 14.875 23.0625 C13.96492187 23.05347656 13.05484375 23.04445313 12.1171875 23.03515625 C11.06917969 23.01775391 11.06917969 23.01775391 10 23 C10 25.97 10 28.94 10 32 C6.7 32 3.4 32 0 32 C0 21.44 0 10.88 0 0 Z M10 8 C10 10.31 10 12.62 10 15 C12.91652174 15.16681109 12.91652174 15.16681109 16 15 C16.66 14.34 17.32 13.68 18 13 C17.59471099 10.21762345 17.59471099 10.21762345 16 8 C14.00041636 7.95919217 11.99954746 7.95745644 10 8 Z " fill="#000000" transform="translate(175,864)"/>
<path d="M0 0 C8.58 0 17.16 0 26 0 C26 2.64 26 5.28 26 8 C20.72 8 15.44 8 10 8 C10 9.32 10 10.64 10 12 C14.62 12 19.24 12 24 12 C24 14.64 24 17.28 24 20 C19.38 20 14.76 20 10 20 C10 23.96 10 27.92 10 32 C6.7 32 3.4 32 0 32 C0 21.44 0 10.88 0 0 Z " fill="#000000" transform="translate(520,864)"/>
<path d="M0 0 C3.80200661 -0.54797604 7.22327996 -0.79264495 11 0 C13.73315938 2.65049293 15.38763727 5.57117799 17 9 C17.30550781 8.3503125 17.61101563 7.700625 17.92578125 7.03125 C19.42509491 4.29447465 20.75351426 2.1785391 23 0 C26.77672004 -0.79264495 30.19799339 -0.54797604 34 0 C32.69689726 3.75265106 30.85337774 6.85630684 28.67358398 10.16577148 C23.96653505 17.38857677 21.58796361 23.14945842 22 32 C18.7 32 15.4 32 12 32 C12.05542969 31.27039063 12.11085938 30.54078125 12.16796875 29.7890625 C12.2362578 18.72623666 7.06292093 11.4549247 0.99389648 2.55957031 C0 1 0 1 0 0 Z " fill="#000000" transform="translate(8,864)"/>
<path d="M0 0 C8.58 0 17.16 0 26 0 C26 2.64 26 5.28 26 8 C23.36 8 20.72 8 18 8 C18 15.92 18 23.84 18 32 C14.7 32 11.4 32 8 32 C8 24.08 8 16.16 8 8 C5.36 8 2.72 8 0 8 C0 5.36 0 2.72 0 0 Z " fill="#000000" transform="translate(719,864)"/>
<path d="M0 0 C8.58 0 17.16 0 26 0 C26 2.64 26 5.28 26 8 C23.36 8 20.72 8 18 8 C18 15.92 18 23.84 18 32 C14.7 32 11.4 32 8 32 C8 24.08 8 16.16 8 8 C5.36 8 2.72 8 0 8 C0 5.36 0 2.72 0 0 Z " fill="#000000" transform="translate(624,864)"/>
<path d="M0 0 C8.58 0 17.16 0 26 0 C26 2.64 26 5.28 26 8 C23.36 8 20.72 8 18 8 C18 15.92 18 23.84 18 32 C14.7 32 11.4 32 8 32 C8 24.08 8 16.16 8 8 C5.36 8 2.72 8 0 8 C0 5.36 0 2.72 0 0 Z " fill="#000000" transform="translate(431,864)"/>
<path d="M0 0 C8.58 0 17.16 0 26 0 C26 2.64 26 5.28 26 8 C23.36 8 20.72 8 18 8 C18 15.92 18 23.84 18 32 C14.7 32 11.4 32 8 32 C8 24.08 8 16.16 8 8 C5.36 8 2.72 8 0 8 C0 5.36 0 2.72 0 0 Z " fill="#000000" transform="translate(274,864)"/>
<path d="M0 0 C2.97 0 5.94 0 9 0 C9.33 2.31 9.66 4.62 10 7 C12.31 7.33 14.62 7.66 17 8 C17 10.64 17 13.28 17 16 C14.69 16.33 12.38 16.66 10 17 C9.67 18.98 9.34 20.96 9 23 C6.03 23 3.06 23 0 23 C0 20.69 0 18.38 0 16 C-2.64 16 -5.28 16 -8 16 C-8 13.36 -8 10.72 -8 8 C-4.535 7.505 -4.535 7.505 -1 7 C-0.67 4.69 -0.34 2.38 0 0 Z " fill="#000000" transform="translate(815,868)"/>
<path d="M0 0 C3.3 0 6.6 0 10 0 C10 10.56 10 21.12 10 32 C6.7 32 3.4 32 0 32 C0 21.44 0 10.88 0 0 Z " fill="#000000" transform="translate(750,864)"/>
</svg>
